<svg width="412" height="488" viewBox="0 0 412 488" fill="none" xmlns="http://www.w3.org/2000/svg">
<rect x="112" y="450" width="188" height="38" fill="#016D72"/>
<rect x="150" width="113" height="38" fill="#016D72"/>
<rect x="112" y="37" width="38" height="38" fill="#016D72"/>
<rect x="262" y="37" width="38" height="38" fill="#016D72"/>
<rect x="300" y="75" width="38" height="38" fill="#016D72"/>
<rect x="75" y="75" width="38" height="38" fill="#016D72"/>
<rect x="37" y="112" width="38" height="76" fill="#016D72"/>
<rect y="187" width="38" height="151" fill="#016D72"/>
<rect x="374" y="187" width="38" height="151" fill="#016D72"/>
<rect x="37" y="337" width="38" height="76" fill="#016D72"/>
<rect x="337" y="337" width="38" height="76" fill="#016D72"/>
<rect x="75" y="412" width="38" height="38" fill="#016D72"/>
<rect x="113" y="412" width="38" height="38" fill="#00ACC1"/>
<rect x="112" y="262" width="38" height="38" fill="#00ACC1"/>
<rect x="262" y="412" width="38" height="38" fill="#00ACC1"/>
<rect x="300" y="374" width="37" height="38" fill="#00ACC1"/>
<rect x="337" y="300" width="38" height="38" fill="#00ACC1"/>
<rect x="263" y="187" width="37" height="113" fill="#00ACC1"/>
<rect x="150" y="300" width="113" height="38" fill="#00ACC1"/>
<rect x="150" y="338" width="113" height="112" fill="#00B8D4"/>
<rect x="150" y="187" width="113" height="113" fill="#4DD0E1"/>
<rect x="263" y="112" width="74" height="75" fill="#4DD0E1"/>
<rect x="263" y="300" width="74" height="38" fill="#00B8D4"/>
<rect x="300" y="262" width="75" height="38" fill="#0097A7"/>
<rect x="263" y="338" width="37" height="74" fill="#0097A7"/>
<rect x="300" y="338" width="37" height="38" fill="#00B8D4"/>
<rect x="300" y="412" width="38" height="38" fill="#016D72"/>
<rect x="337" y="113" width="38" height="76" fill="#016D72"/>
<rect x="300" y="187" width="75" height="75" fill="#4DD0E1"/>
<rect x="150" y="75" width="75" height="75" fill="#4DD0E1"/>
<rect x="113" y="225" width="37" height="37" fill="#B2EBF2"/>
<rect x="75" y="262" width="38" height="38" fill="#B2EBF2"/>
<rect x="225" y="75" width="38" height="37" fill="#4DD0E1"/>
<rect x="112" y="150" width="38" height="37" fill="#4DD0E1"/>
<rect x="75" y="187" width="38" height="37" fill="#4DD0E1"/>
<rect x="75" y="224" width="38" height="38" fill="#4DD0E1"/>
<rect x="75" y="300" width="75" height="112" fill="#4DD0E1"/>
<rect x="113" y="338" width="37" height="74" fill="#0097A7"/>
<rect x="37" y="187" width="38" height="151" fill="#E0F7FA"/>
<rect x="75" y="112" width="38" height="75" fill="#E0F7FA"/>
<rect x="113" y="75" width="37" height="38" fill="#E0F7FA"/>
<rect x="225" y="112" width="38" height="38" fill="#E0F7FA"/>
<rect x="150" y="150" width="38" height="37" fill="#E0F7FA"/>
<rect x="188" y="150" width="75" height="37" fill="#B2EBF2"/>
<rect x="263" y="75" width="37" height="37" fill="#B2EBF2"/>
<rect x="113" y="112" width="37" height="38" fill="#B2EBF2"/>
<rect x="113" y="187" width="37" height="38" fill="#E0F7FA"/>
<rect x="150" y="37" width="113" height="38" fill="#E0F7FA"/>
</svg>
