<svg width="40" height="40" viewBox="0 0 20 20" fill="none" xmlns="http://www.w3.org/2000/svg">
  <mask id="mask0_11464_11110" maskUnits="userSpaceOnUse" x="2" y="1" width="17" height="19" style="mask-type: alpha;">
    <path d="M17.5455 5.16587C17.857 5.34409 18.0493 5.67576 18.0493 6.03498L18.0493 10.03L18.0493 14.0251C18.0493 14.3843 17.857 14.716 17.5455 14.8942L10.5455 18.8981C10.238 19.074 9.86063 19.074 9.55319 18.8981L2.55321 14.8942C2.24164 14.716 2.04935 14.3843 2.04935 14.0251L2.04935 10.03L2.04935 6.03498C2.04935 5.67576 2.24164 5.34409 2.55321 5.16587L9.5532 1.16192C9.86063 0.986066 10.238 0.986067 10.5455 1.16192L17.5455 5.16587Z" fill="#ADFFF1"/>
  </mask>
  <g mask="url(#mask0_11464_11110)">
    <path d="M17.5455 5.16167C17.857 5.33972 18.0493 5.67106 18.0493 6.02992L18.0493 10.021L18.0493 14.0121C18.0493 14.371 17.857 14.7023 17.5455 14.8804L10.5455 18.8803C10.238 19.056 9.86063 19.056 9.5532 18.8803L2.55321 14.8804C2.24164 14.7023 2.04935 14.371 2.04935 14.0121L2.04935 10.021L2.04935 6.02991C2.04935 5.67106 2.24164 5.33971 2.55321 5.16167L9.5532 1.16168C9.86063 0.986006 10.238 0.986006 10.5455 1.16168L17.5455 5.16167Z" fill="#ADFFF1"/>
    <path d="M18.0493 5.44945L18.0493 14.5923L14.6208 12.3066L14.6208 7.73516L18.0493 5.44945Z" fill="#02AF92"/>
    <path d="M10.0492 5.44954L5.47793 7.73521L2.04937 5.4495L10.0493 0.878086L10.0492 5.44954Z" fill="#03EBC4"/>
    <path d="M5.47778 7.73516L5.47778 12.3066L2.04922 14.5923L2.04922 5.44945L5.47778 7.73516Z" fill="#0CF8D0"/>
    <path d="M18.0493 14.5924L10.0493 19.1638L10.0493 14.5924L14.6208 12.3067L18.0493 14.5924Z" fill="#04BB9C"/>
    <path d="M10.0494 14.5923L5.47794 12.3066L2.04934 14.5923L10.0492 19.1637L10.0494 14.5923Z" fill="#08D5B2"/>
    <path d="M14.6207 7.73529L10.0495 5.44957L10.0495 0.878122L18.0495 5.44954L14.6207 7.73529Z" fill="#04C5A4"/>
    <path d="M14.5145 7.20877C14.8157 7.38949 15 7.715 15 8.06626L15 10.0001L15 11.9339C15 12.2851 14.8157 12.6106 14.5145 12.7914L10.5145 15.1914C10.1978 15.3814 9.80219 15.3814 9.4855 15.1914L5.4855 12.7914C5.1843 12.6106 5 12.2851 5 11.9339L5 10.0001L5 8.06626C5 7.715 5.1843 7.38949 5.4855 7.20877L9.4855 4.80877C9.80219 4.61876 10.1978 4.61876 10.5145 4.80877L14.5145 7.20877Z" fill="#ADFFF1"/>
  </g>
  <path d="M12.7774 8.40345C12.9164 8.49894 13 8.65969 13 8.83183L13 10.1008L13 11.3698C13 11.542 12.9164 11.7027 12.7773 11.7982L10.2774 13.5144C10.1094 13.6297 9.8906 13.6297 9.72265 13.5144L7.22265 11.7982C7.08355 11.7027 7 11.542 7 11.3698L7 10.1008L7 8.83183C7 8.65969 7.08355 8.49894 7.22265 8.40345L9.72265 6.6873C9.8906 6.57201 10.1094 6.57201 10.2774 6.6873L12.7774 8.40345Z" fill="#08D2B0"/>
</svg>
