<svg width="132" height="131" viewBox="0 0 132 131" fill="none" xmlns="http://www.w3.org/2000/svg">
<g clip-path="url(#clip0_5201_13150)">
<path d="M19.1661 81.1971L19.1551 81.1754L19.1332 81.1858L17.6541 81.8809L17.6313 81.8916L17.6422 81.9143L18.497 83.6941L16.8034 84.561L16.7804 84.5727L16.7928 84.5953C17.5051 85.8915 18.2664 87.1573 19.0738 88.3894L19.0867 88.4092L19.1072 88.3974L20.7235 87.4665L22.8372 90.3036L21.2828 91.4837L21.2629 91.4988L21.278 91.5187C22.2204 92.7662 23.212 93.9739 24.2527 95.139L24.2686 95.1569L24.2871 95.1418L25.6262 94.0522L28.1609 96.5102L26.8799 97.8581L26.863 97.8759L26.8805 97.8931C27.9212 98.9149 29.0018 99.9 30.1162 100.842L30.1328 100.856L30.149 100.842L31.498 99.6373L34.151 101.969L33.3572 103.353L33.346 103.373L33.3641 103.386C34.543 104.246 35.7587 105.061 37.002 105.829L37.0216 105.841L37.0353 105.823L38.0871 104.389L41.3161 106.169L40.6068 107.856L40.5979 107.877L40.6183 107.888C41.8524 108.531 43.1141 109.132 44.3973 109.687L44.4183 109.696L44.4292 109.676L45.2595 108.156L48.6916 109.484L48.2342 111.161L48.2281 111.183L48.2501 111.191C49.5855 111.658 50.9424 112.075 52.3177 112.445L52.3401 112.451L52.3477 112.429L52.9358 110.754L56.5377 111.492L56.3467 113.338L56.3444 113.361L56.3669 113.366C57.7975 113.64 59.2465 113.86 60.7139 114.024L60.7363 114.027L60.7411 114.005L61.1262 112.224L64.7918 112.498L64.8312 114.311L64.8317 114.335L64.8552 114.335C65.6103 114.366 66.3686 114.384 67.13 114.384C67.8699 114.384 68.6036 114.366 69.3342 114.339L69.3577 114.338L69.3582 114.314L69.3915 112.7L73.057 112.426L73.3992 114.017L73.4039 114.039L73.4263 114.037C74.8999 113.875 76.3581 113.655 77.7948 113.384L77.8174 113.38L77.815 113.357L77.6425 111.693L81.2444 110.955L81.7741 112.462L81.7818 112.484L81.8041 112.478C83.1856 112.112 84.5486 111.694 85.8871 111.231L85.9091 111.223L85.903 111.2L85.4916 109.686L88.9238 108.357L89.6804 109.743L89.6913 109.763L89.7122 109.754C91.0046 109.202 92.2695 108.602 93.5097 107.958L93.5302 107.947L93.5212 107.926L92.8671 106.374L96.0962 104.593L97.0713 105.92L97.0849 105.939L97.1045 105.927C98.357 105.158 99.5758 104.344 100.764 103.487L100.782 103.474L100.771 103.454L100.035 102.17L102.688 99.8385L103.958 100.973L103.974 100.987L103.99 100.974C105.114 100.034 106.198 99.0521 107.244 98.0304L107.262 98.0131L107.245 97.9953L106.025 96.7145L108.56 94.2565L109.838 95.2972L109.856 95.3123L109.872 95.2946C110.916 94.1325 111.911 92.9278 112.856 91.6865L112.871 91.6666L112.851 91.6514L111.346 90.5079L113.46 87.6707L115.036 88.5773L115.057 88.589L115.07 88.5694C115.883 87.3403 116.647 86.0776 117.363 84.7844L117.375 84.7618L117.352 84.75L115.689 83.8983L116.544 82.1186L116.555 82.0958L116.532 82.0851L114.82 81.2816C114.744 81.2197 114.68 81.1953 114.623 81.1915C114.568 81.1878 114.521 81.2033 114.481 81.2165L114.476 81.2182L114.466 81.2215L114.462 81.2307C114.451 81.2522 114.442 81.27 114.437 81.2823L114.43 81.2967L114.428 81.3005L114.428 81.3007C114.428 81.3009 114.428 81.301 114.428 81.3012C105.585 98.6641 87.5474 110.609 66.8139 110.609C46.0404 110.609 27.978 98.6182 19.1661 81.1971Z" fill="white" stroke="white" stroke-width="0.05"/>
<path d="M115.501 79.1286C115.503 79.1278 115.506 79.1272 115.508 79.1265C115.471 79.2125 115.447 79.2823 115.433 79.3397C115.417 79.4056 115.414 79.4568 115.423 79.4975C115.442 79.5824 115.511 79.6116 115.576 79.637C115.576 79.6371 115.576 79.6371 115.576 79.6372L119.11 81.2798L119.133 81.2904L119.143 81.2677C122.526 74.0179 124.417 65.9537 124.417 57.4595C124.417 26.1086 98.6791 0.537775 67.1237 0.537775C35.5683 0.537775 9.83315 26.1086 9.83315 57.4595C9.83315 65.8775 11.6905 73.8745 15.0152 81.0725L15.0257 81.0953L15.0484 81.0847L18.341 79.5543L18.3639 79.5437L18.353 79.5209C18.3386 79.4907 18.3263 79.4637 18.3166 79.4424C18.3084 79.4243 18.302 79.4104 18.2978 79.4019C15.1786 72.6189 13.4335 65.0803 13.4335 57.1455C13.4335 27.6972 37.4124 3.68214 66.8138 3.68214C96.2152 3.68214 120.194 27.7003 120.194 57.1455C120.194 64.9616 118.501 72.3937 115.471 79.0945L115.447 79.1465L115.501 79.1286Z" fill="white" stroke="white" stroke-width="0.05"/>
<path fill-rule="evenodd" clip-rule="evenodd" d="M18.3309 79.5314C18.515 79.9216 19.0796 81.0557 19.0704 81.0679C19.095 81.1136 19.1195 81.1624 19.141 81.2081" fill="white"/>
<path fill-rule="evenodd" clip-rule="evenodd" d="M52.3426 34.2683L52.2935 38.5211C54.2635 38.3839 55.2577 39.3412 56.034 41.8258L55.9266 66.8948C55.1442 68.6996 53.9566 69.4374 51.8455 69.7148V75.3334L61.9073 75.3426L62.0116 69.663C59.8053 69.5075 58.5411 68.4405 58.3723 66.8704L58.4643 41.4478C59.8299 37.5395 65.1323 36.7926 65.1201 44.3044L66.0069 44.3013L65.9302 34.2683H52.3426Z" fill="white"/>
<path fill-rule="evenodd" clip-rule="evenodd" d="M68.5902 34.2686L68.5964 44.3139L69.3359 44.2956C69.5507 37.1466 72.9629 37.4697 74.4543 41.1921L74.3837 66.7763C73.9878 68.7304 72.4536 69.5444 70.6523 69.6664L70.6799 75.3917L80.6681 75.3399L80.6405 69.3646C78.9067 69.77 77.7039 68.6359 76.8999 66.8738L76.9521 41.1951C78.0997 36.299 82.8621 38.1953 82.1103 44.3017H82.8161L82.8008 34.2656L68.5902 34.2686Z" fill="white"/>
<path fill-rule="evenodd" clip-rule="evenodd" d="M85.1637 34.2683L85.1422 38.5943C86.5967 38.5882 88.0328 39.3016 87.999 40.9448L88.0758 55.0539C88.401 59.2702 92.9793 60.6817 95.8362 58.6269L95.8208 63.3004C95.0291 66.0015 93.8293 67.9313 91.1627 69.8184L84.5224 69.8062L84.5715 75.3639L100.052 75.3151V69.8489L95.0291 69.8977C96.2136 68.9221 97.7203 66.6265 98.2296 64.4345L98.5856 40.8046C98.8311 39.14 99.8007 38.6675 101.636 38.5912L101.663 34.2835H94.486L94.4584 38.5669C95.9037 39.2772 95.8791 39.7223 95.9037 41.4692L95.8055 54.4259C95.2071 58.2397 90.8405 57.2885 90.4355 54.9137L90.5337 41.5789C90.4969 40.3991 90.8958 39.1217 92.2643 38.5516L92.2735 34.2896L85.1637 34.2683Z" fill="white"/>
<path fill-rule="evenodd" clip-rule="evenodd" d="M32.7005 34.3022H50.5258L50.4 38.5337C48.5435 38.3142 47.2425 39.1678 47.3284 41.7012L47.2455 67.6512C47.5831 68.9987 48.5681 69.6724 50.0011 69.6663L50.0287 75.3338H30.7704L30.5986 69.642C32.3446 70.0566 34.3054 69.1816 35.1953 66.1391L35.3947 44.9754C35.9931 42.0853 37.3647 39.6312 40.1909 38.5459L32.7097 38.5489L32.7005 34.3022ZM38.4664 43.5883L38.3835 66.3891C39.5281 70.5596 44.0481 70.8004 44.9932 66.3891L44.9656 42.9572C43.4896 39.7013 39.6416 39.8415 38.4664 43.5883Z" fill="white"/>
<path fill-rule="evenodd" clip-rule="evenodd" d="M19.5797 34.5433H30.1417V35.6713H19.5797V34.5433Z" fill="white"/>
<path fill-rule="evenodd" clip-rule="evenodd" d="M104.312 34.3753H114.088V35.5033H104.312V34.3753Z" fill="white"/>
<path fill-rule="evenodd" clip-rule="evenodd" d="M19.3833 77.2516H114.254V78.346H19.3833V77.2516Z" fill="white"/>
<path d="M35.2415 123.066C35.7785 123.029 36.021 122.179 35.6128 121.788C34.499 120.788 32.9555 120.136 29.5494 120.371C31.1818 121.944 32.9923 123.197 35.2415 123.066Z" fill="white"/>
<path fill-rule="evenodd" clip-rule="evenodd" d="M35.2994 124.356L26.9683 122.966Z" fill="white"/>
<path d="M27.0029 122.809L26.9505 123.119L35.2817 124.51L35.3341 124.201L27.0029 122.809Z" fill="white"/>
<path d="M13.2615 116.183L13.187 116.482L28.4778 120.248L28.5524 119.949L13.2615 116.183Z" fill="white"/>
<path d="M9.43977 109.91L9.36044 110.068L23.8123 117.216L23.8916 117.058L9.43977 109.91Z" fill="white"/>
<path d="M6.02287 103.839L5.92184 103.988L19.3017 112.926L19.4027 112.777L6.02287 103.839Z" fill="white"/>
<path d="M5.56447 98.3866L5.46526 98.4948L16.4649 108.455L16.5641 108.346L5.56447 98.3866Z" fill="white"/>
<path d="M5.44482 93.8105L5.34508 93.9054L14.6468 103.557L14.7465 103.462L5.44482 93.8105Z" fill="white"/>
<path d="M7.60466 89.9021L7.55888 89.9328L13.071 98.0435L13.1168 98.0128L7.60466 89.9021Z" fill="white"/>
<path d="M14.9291 94.8826L14.8791 94.9059L17.721 100.956L17.7711 100.933L14.9291 94.8826Z" fill="white"/>
<path d="M17.3751 96.3037L17.3243 96.3251L19.5476 101.528L19.5984 101.506L17.3751 96.3037Z" fill="white"/>
<path d="M20.4484 97.7316L20.3962 97.7493L22.8308 104.823L22.883 104.805L20.4484 97.7316Z" fill="white"/>
<path d="M22.9976 99.9902L22.9454 100.008L26.1612 109.261L26.2134 109.243L22.9976 99.9902Z" fill="white"/>
<path d="M24.8859 100.173L24.8347 100.194L29.9636 112.655L30.0148 112.635L24.8859 100.173Z" fill="white"/>
<path d="M26.1978 99.9414L26.1486 99.9662L34.2441 115.812L34.2933 115.787L26.1978 99.9414Z" fill="white"/>
<path d="M38.1349 119.269C34.4004 113.593 31.1539 107.651 28.205 101.106L28.2541 101.084C31.1999 107.627 34.4464 113.565 38.1809 119.242L38.1349 119.269Z" fill="white"/>
<path d="M45.5919 120.563C41.4801 117.456 37.9666 113.685 34.539 108.701L34.585 108.67C38.0095 113.652 41.52 117.417 45.6257 120.52L45.5919 120.563Z" fill="white"/>
<path fill-rule="evenodd" clip-rule="evenodd" d="M22.022 112.548C22.559 112.634 23.0009 111.887 22.694 111.427C21.8379 110.241 20.4785 109.283 17.0755 108.753C18.2998 110.594 19.7789 112.173 22.022 112.548Z" fill="white"/>
<path d="M22.1016 112.558C22.074 112.558 22.0464 112.555 22.0188 112.552C20.9724 112.378 20.0365 111.936 19.162 111.205C18.4501 110.607 17.7842 109.83 17.0692 108.757L17.0661 108.75H17.0723C18.6741 109 19.9076 109.357 20.8374 109.839C21.6168 110.244 22.206 110.747 22.6908 111.424C22.8381 111.647 22.8228 111.961 22.654 112.223C22.519 112.433 22.3134 112.558 22.1016 112.558ZM22.0219 112.546C22.2581 112.583 22.4975 112.458 22.654 112.217C22.8228 111.958 22.8381 111.647 22.6908 111.427C21.9329 110.375 20.73 109.327 17.0815 108.757C18.1156 110.311 19.61 112.144 22.0219 112.546Z" fill="white"/>
<path fill-rule="evenodd" clip-rule="evenodd" d="M19.1808 108.671C19.6656 108.851 20.2363 108.232 20.0461 107.744C19.4907 106.47 18.4136 105.321 15.3297 104.19C16.0969 106.144 17.1555 107.903 19.1808 108.671Z" fill="white"/>
<path d="M19.3588 108.704C19.3005 108.704 19.2391 108.695 19.1839 108.674L19.1808 108.671C18.2357 108.311 17.4501 107.723 16.7812 106.872C16.235 106.18 15.7747 105.327 15.3267 104.183L15.3236 104.177L15.3298 104.18C16.7812 104.714 17.8644 105.278 18.6377 105.906C19.2851 106.43 19.7331 107.012 20.0492 107.738C20.1413 107.973 20.0646 108.262 19.8498 108.476C19.7055 108.628 19.5306 108.704 19.3588 108.704ZM19.1808 108.668C19.3956 108.747 19.6503 108.674 19.8467 108.476C20.0584 108.262 20.1351 107.976 20.0431 107.744C19.5521 106.616 18.6407 105.406 15.3359 104.192C15.9834 105.842 17.0052 107.839 19.1808 108.668Z" fill="white"/>
<path fill-rule="evenodd" clip-rule="evenodd" d="M17.7445 104.634C18.2723 104.893 18.9689 104.222 18.8001 103.627C18.2999 102.076 17.2014 100.618 13.8567 98.9844C14.5287 101.359 15.5505 103.53 17.7445 104.634Z" fill="white"/>
<path d="M17.9964 104.696C17.9104 104.696 17.8245 104.677 17.7447 104.638C17.217 104.373 16.7321 104.031 16.3056 103.623C15.9097 103.245 15.5477 102.796 15.2285 102.287C14.6823 101.418 14.2466 100.37 13.8569 98.9857L13.8538 98.9796L13.8599 98.9826C15.4372 99.7509 16.594 100.522 17.398 101.336C18.0731 102.016 18.518 102.745 18.8034 103.629C18.8985 103.97 18.7113 104.312 18.4812 104.504C18.3278 104.629 18.1559 104.696 17.9964 104.696ZM17.7478 104.632C17.9718 104.742 18.2449 104.69 18.4781 104.498C18.7052 104.309 18.8924 103.967 18.7973 103.632C18.3554 102.26 17.4502 100.748 13.863 98.9948C14.4307 100.998 15.385 103.446 17.7478 104.632Z" fill="white"/>
<path fill-rule="evenodd" clip-rule="evenodd" d="M21.07 108.459C21.4137 108.861 22.233 108.556 22.3067 108.005C22.454 106.541 22.0735 104.941 19.8948 102.395C19.591 104.599 19.6493 106.761 21.07 108.459Z" fill="white"/>
<path d="M21.5003 108.649C21.3254 108.649 21.172 108.585 21.0677 108.463C20.4049 107.671 20.0029 106.741 19.8341 105.619C19.696 104.707 19.7175 103.683 19.8924 102.397V102.391L19.8986 102.397C20.9235 103.598 21.6047 104.646 21.976 105.61C22.289 106.415 22.3933 107.177 22.3104 108.009C22.2675 108.326 21.9852 108.543 21.7274 108.619C21.6476 108.637 21.5709 108.649 21.5003 108.649ZM21.0738 108.46C21.218 108.631 21.4635 108.686 21.7274 108.61C21.9852 108.537 22.2614 108.32 22.3043 108.006C22.4332 106.71 22.2337 105.134 19.8986 102.403C19.6439 104.265 19.5457 106.631 21.0738 108.46Z" fill="white"/>
<path fill-rule="evenodd" clip-rule="evenodd" d="M24.3356 112.274C24.713 112.7 25.6428 112.386 25.741 111.807C25.9435 110.271 25.5538 108.585 23.1664 105.884C22.7706 108.204 22.7798 110.472 24.3356 112.274Z" fill="white"/>
<path d="M24.827 112.476C24.6244 112.476 24.4465 112.405 24.3329 112.277C23.9586 111.844 23.6578 111.363 23.4369 110.845C23.2344 110.366 23.0902 109.838 23.0134 109.274C22.8815 108.314 22.9306 107.238 23.1607 105.887V105.881L23.1638 105.887C24.29 107.159 25.0295 108.271 25.4223 109.287C25.7537 110.134 25.8519 110.939 25.7383 111.814C25.7138 111.96 25.634 112.098 25.5113 112.21C25.3977 112.314 25.2474 112.396 25.0878 112.442C25.0049 112.463 24.9129 112.476 24.827 112.476ZM24.3391 112.274C24.5017 112.457 24.7901 112.518 25.0939 112.433C25.4376 112.335 25.6923 112.091 25.7414 111.811C25.9194 110.451 25.7322 108.793 23.173 105.897C22.8355 107.848 22.6667 110.338 24.3391 112.274Z" fill="white"/>
<path fill-rule="evenodd" clip-rule="evenodd" d="M26.0699 116.243C26.6284 116.191 26.8432 115.209 26.3982 114.764C25.1861 113.636 23.5383 112.914 19.988 113.246C21.7678 115.023 23.7194 116.432 26.0699 116.243Z" fill="white"/>
<path d="M25.6492 116.262C25.2227 116.262 24.7992 116.21 24.3788 116.106C23.8633 115.978 23.3355 115.771 22.8139 115.485C21.924 114.997 21.0249 114.286 19.9846 113.247L19.9785 113.241H19.9846C21.657 113.082 22.9918 113.152 24.0689 113.451C24.968 113.701 25.7075 114.116 26.3979 114.759C26.6741 115.033 26.6833 115.482 26.5728 115.783C26.4746 116.055 26.2905 116.222 26.0696 116.244H26.0665C25.9284 116.259 25.7873 116.262 25.6492 116.262ZM19.9938 113.25C21.4146 114.668 23.3202 116.259 25.6523 116.259C25.7904 116.259 25.9284 116.253 26.0696 116.241H26.0727C26.2905 116.219 26.4716 116.055 26.5698 115.786C26.6772 115.488 26.671 115.043 26.3949 114.768C25.4866 113.924 24.2622 113.168 21.611 113.168C21.1231 113.168 20.5861 113.192 19.9938 113.25Z" fill="white"/>
<path fill-rule="evenodd" clip-rule="evenodd" d="M30.4335 119.402C30.9736 119.293 31.1025 118.396 30.633 118.055C29.3626 117.192 27.7056 116.738 24.281 117.439C26.1559 118.817 28.1658 119.841 30.4335 119.402Z" fill="white"/>
<path d="M29.3652 119.509C28.6594 119.509 27.9475 119.375 27.208 119.103C26.3028 118.771 25.373 118.244 24.2775 117.442L24.2714 117.439H24.2775C25.8916 117.11 27.1926 117.018 28.2605 117.158C29.1535 117.277 29.9083 117.561 30.6294 118.052C30.8964 118.247 30.9578 118.609 30.8964 118.881C30.835 119.161 30.6601 119.359 30.4269 119.405C30.0771 119.475 29.7242 119.509 29.3652 119.509ZM24.2898 117.442C25.8701 118.6 27.9966 119.872 30.4331 119.399C30.6632 119.353 30.835 119.158 30.8964 118.881C30.9547 118.613 30.8964 118.253 30.6325 118.058C29.5063 117.296 27.9598 116.692 24.2898 117.442Z" fill="white"/>
<path fill-rule="evenodd" clip-rule="evenodd" d="M28.3869 116.335C28.792 116.716 29.6389 116.322 29.6696 115.746C29.688 114.225 29.1326 112.618 26.5642 110.204C26.4445 112.505 26.7084 114.722 28.3869 116.335Z" fill="white"/>
<path d="M28.7977 116.491C28.6382 116.491 28.4909 116.439 28.3865 116.338C27.6041 115.585 27.0824 114.667 26.8001 113.53C26.5669 112.604 26.4932 111.549 26.5607 110.207V110.201L26.5669 110.207C27.7759 111.344 28.6044 112.36 29.0923 113.314C29.5004 114.113 29.6876 114.887 29.6753 115.753C29.6692 115.896 29.6078 116.039 29.5035 116.161C29.4053 116.274 29.2733 116.369 29.1261 116.427C29.0125 116.466 28.9021 116.491 28.7977 116.491ZM28.3896 116.335C28.5614 116.497 28.8438 116.53 29.1199 116.42C29.436 116.292 29.6508 116.03 29.6661 115.753C29.6845 114.408 29.3194 112.805 26.5669 110.219C26.4656 112.155 26.5853 114.6 28.3896 116.335Z" fill="white"/>
<path fill-rule="evenodd" clip-rule="evenodd" d="M32.679 119.397C33.1117 119.714 33.885 119.256 33.8482 118.714C33.6978 117.281 32.9859 115.827 30.2426 113.821C30.3868 115.994 30.887 118.052 32.679 119.397Z" fill="white"/>
<path d="M33.0167 119.503C32.8909 119.503 32.7743 119.469 32.6791 119.399C31.8414 118.771 31.24 117.96 30.8411 116.921C30.5158 116.073 30.3255 115.088 30.2427 113.82V113.814L30.2488 113.817C31.5407 114.762 32.449 115.634 33.0228 116.478C33.5046 117.186 33.7685 117.896 33.8544 118.71C33.8728 118.969 33.701 119.237 33.4156 119.393C33.2806 119.466 33.1455 119.503 33.0167 119.503ZM32.6822 119.393C32.8725 119.533 33.1517 119.53 33.4125 119.387C33.6948 119.234 33.8636 118.969 33.8452 118.71C33.7132 117.445 33.1854 115.975 30.2488 113.823C30.3685 115.661 30.7551 117.948 32.6822 119.393Z" fill="white"/>
<path fill-rule="evenodd" clip-rule="evenodd" d="M35.2567 123.253C35.7937 123.217 36.2847 122.51 35.9348 121.936C35.361 120.793 32.9277 119.76 29.0613 120.189C30.6845 121.933 32.9982 123.573 35.2567 123.253Z" fill="white"/>
<path d="M34.6767 123.295C33.8052 123.295 32.8785 123.027 31.9181 122.497C30.9576 121.966 29.9695 121.167 29.0582 120.192L29.0551 120.186H29.0613C30.8379 119.988 32.452 120.085 33.7347 120.469C34.2993 120.637 34.781 120.857 35.1646 121.119C35.5298 121.369 35.7906 121.643 35.9379 121.936C36.0883 122.186 36.0944 122.484 35.9502 122.759C35.8029 123.042 35.5298 123.238 35.2567 123.256C35.0664 123.283 34.8731 123.295 34.6767 123.295ZM29.0674 120.192C29.9757 121.164 32.2372 123.289 34.6829 123.289C34.8731 123.289 35.0634 123.277 35.2567 123.25C35.5298 123.231 35.7998 123.036 35.9471 122.756C36.0883 122.484 36.0852 122.186 35.9348 121.939C35.4531 120.975 33.6825 120.091 30.8165 120.091C30.2703 120.091 29.6903 120.125 29.0674 120.192Z" fill="white"/>
<path fill-rule="evenodd" clip-rule="evenodd" d="M36.6097 122.24C36.9687 122.545 37.6438 122.161 37.6284 121.667C37.5456 120.362 36.984 119.015 34.7102 117.091C34.7624 119.07 35.1245 120.954 36.6097 122.24Z" fill="white"/>
<path d="M36.9198 122.352C36.8032 122.352 36.6989 122.316 36.6129 122.246L36.6068 122.24C35.9133 121.639 35.4254 120.883 35.1186 119.923C34.8669 119.142 34.7381 118.24 34.7074 117.087V117.081L34.7135 117.087C35.7844 117.993 36.5301 118.819 36.9965 119.609C37.3831 120.27 37.5857 120.923 37.6348 121.666C37.644 121.95 37.4292 122.179 37.2144 122.282C37.1131 122.328 37.0149 122.352 36.9198 122.352ZM36.6099 122.237C36.7633 122.368 36.9873 122.383 37.2082 122.276C37.423 122.176 37.6348 121.947 37.6256 121.666C37.5519 120.514 37.1499 119.16 34.7135 117.097C34.7595 118.767 35.0142 120.856 36.6099 122.237Z" fill="white"/>
<path fill-rule="evenodd" clip-rule="evenodd" d="M66.937 130.554C59.9161 129.877 52.9536 129.542 45.5553 126.688C44.4383 126.164 43.082 126.014 41.4956 126.243C39.7772 126.417 37.7765 125.399 35.7666 124.344C37.1014 123.71 38.6203 123.219 42.3456 125.234C42.9777 125.554 43.5853 124.804 42.4806 124.49C39.6299 123.652 38.9088 122.005 38.4884 120.243C42.008 121.137 43.26 123.935 44.6685 124.966C51.8151 128.898 61.7818 129.325 66.9953 129.786C67.4433 129.81 67.3973 130.581 66.937 130.554Z" fill="white"/>
<path d="M66.9615 130.556C66.9522 130.556 66.9461 130.556 66.9369 130.556C66.1023 130.477 65.2523 130.398 64.433 130.324C61.3951 130.05 58.2529 129.764 55.1199 129.239C53.4322 128.956 51.8856 128.629 50.3851 128.239C48.7004 127.8 47.1201 127.294 45.5552 126.687C44.4413 126.166 43.0758 126.017 41.4954 126.242C40.7191 126.322 39.8169 126.16 38.7368 125.755C37.7917 125.398 36.8312 124.904 35.7634 124.343L35.7572 124.34L35.7634 124.337C36.4078 124.032 37.1227 123.736 38.1568 123.788C39.2861 123.843 40.6577 124.316 42.3454 125.227C42.6063 125.358 42.8395 125.3 42.9592 125.212C43.0573 125.139 43.1034 125.035 43.085 124.931C43.0666 124.825 42.9592 124.627 42.4805 124.489C41.1733 124.105 40.222 123.523 39.5715 122.712C38.9485 121.932 38.6724 121.026 38.4852 120.24V120.233H38.4913C39.5837 120.511 40.5534 120.993 41.4525 121.709C42.2319 122.331 42.8395 123.026 43.3734 123.642C43.8429 124.181 44.2449 124.645 44.6714 124.956C51.1031 128.495 59.9927 129.209 65.3044 129.635C65.9089 129.684 66.4797 129.73 66.9983 129.776C67.121 129.782 67.2161 129.846 67.2714 129.953C67.342 130.09 67.3297 130.276 67.2438 130.404C67.1732 130.504 67.075 130.556 66.9615 130.556ZM66.9369 130.55C67.0597 130.556 67.164 130.507 67.2315 130.407C67.3143 130.282 67.3266 130.099 67.2591 129.962C67.2069 129.855 67.1118 129.794 66.9921 129.788C66.4736 129.742 65.9028 129.696 65.2983 129.648C62.4967 129.422 59.0077 129.142 55.3377 128.471C53.3432 128.105 51.4898 127.654 49.8297 127.133C47.9057 126.526 46.1658 125.797 44.6622 124.971C44.2357 124.66 43.8337 124.194 43.3642 123.657C42.2841 122.416 40.9431 120.877 38.4913 120.252C38.8718 121.849 39.5285 123.624 42.4805 124.492C42.9653 124.63 43.0696 124.831 43.0911 124.938C43.1095 125.044 43.0635 125.151 42.9653 125.224C42.8425 125.316 42.6093 125.373 42.3454 125.239C38.7061 123.27 37.1596 123.691 35.7756 124.346C37.494 125.248 39.4211 126.261 41.1057 126.261C41.2377 126.261 41.3696 126.255 41.4985 126.242C42.2902 126.13 43.0328 126.111 43.7048 126.184C44.3799 126.258 45.0028 126.428 45.5582 126.691C52.0759 129.206 58.3603 129.776 64.436 130.324C65.2523 130.392 66.1023 130.468 66.9369 130.55Z" fill="white"/>
<path fill-rule="evenodd" clip-rule="evenodd" d="M66.3662 127.965C66.7006 127.681 66.4459 127.01 65.9857 126.949C64.7674 126.83 63.4388 127.144 61.3214 128.934C63.1595 129.178 64.9546 129.129 66.3662 127.965Z" fill="white"/>
<path d="M62.9384 129.057C62.4535 129.057 61.9227 129.017 61.3243 128.935H61.3182L61.3243 128.929C62.3216 128.084 63.1961 127.526 63.994 127.222C64.6629 126.965 65.2981 126.877 65.9916 126.944C66.2524 126.978 66.4335 127.209 66.4979 127.42C66.5624 127.639 66.5163 127.844 66.3721 127.965C65.7124 128.511 64.9391 128.84 64.0062 128.981C63.6718 129.032 63.3189 129.057 62.9384 129.057ZM61.3304 128.929C62.8801 129.136 64.8501 129.215 66.366 127.962C66.5071 127.844 66.5531 127.642 66.4887 127.423C66.4273 127.212 66.2463 126.984 65.9885 126.95C64.9115 126.847 63.6012 127.011 61.3304 128.929Z" fill="white"/>
<path fill-rule="evenodd" clip-rule="evenodd" d="M60.8669 127.544C61.232 127.303 61.0602 126.605 60.6122 126.489C59.4185 126.227 58.0591 126.383 55.7424 127.91C57.5375 128.374 59.3265 128.535 60.8669 127.544Z" fill="white"/>
<path d="M58.2125 128.279C57.4944 128.279 56.7027 128.16 55.7423 127.913L55.7361 127.91L55.7423 127.907C56.8347 127.188 57.7675 126.737 58.5991 126.526C59.2926 126.35 59.9339 126.337 60.6152 126.487C60.8729 126.551 61.0233 126.801 61.0601 127.02C61.1 127.246 61.0263 127.444 60.8698 127.548C60.1518 128.011 59.3448 128.249 58.3997 128.276C58.3383 128.279 58.2769 128.279 58.2125 128.279ZM55.7515 127.907C57.2643 128.298 59.2098 128.606 60.8668 127.542C61.0202 127.438 61.0908 127.246 61.054 127.02C61.0171 126.804 60.8668 126.557 60.6121 126.493C59.5565 126.261 58.234 126.273 55.7515 127.907Z" fill="white"/>
<path fill-rule="evenodd" clip-rule="evenodd" d="M55.9073 126.109C56.3307 125.829 56.1313 125.021 55.6127 124.89C54.2288 124.585 52.6577 124.765 49.9757 126.533C52.0501 127.066 54.1214 127.255 55.9073 126.109Z" fill="white"/>
<path d="M52.8334 126.957C52.0018 126.957 51.0873 126.819 49.9735 126.533L49.9673 126.53L49.9735 126.527C51.2377 125.695 52.3178 125.17 53.2814 124.926C54.0853 124.722 54.8279 124.71 55.6135 124.881C55.9111 124.957 56.086 125.243 56.129 125.496C56.175 125.759 56.0922 125.987 55.9111 126.106C55.0795 126.643 54.1436 126.917 53.0543 126.951C52.9776 126.957 52.907 126.957 52.8334 126.957ZM49.9827 126.53C51.7348 126.981 53.9902 127.338 55.905 126.106C56.086 125.987 56.1658 125.762 56.1198 125.502C56.0768 125.253 55.9019 124.966 55.6104 124.893C54.386 124.621 52.8579 124.637 49.9827 126.53Z" fill="white"/>
<path fill-rule="evenodd" clip-rule="evenodd" d="M66.1513 126.436C66.6638 126.46 66.986 125.683 66.6423 125.268C65.6972 124.201 64.3132 123.418 61.0698 123.268C62.4383 124.936 64.0125 126.317 66.1513 126.436Z" fill="white"/>
<path d="M66.1727 126.441C66.1666 126.441 66.1574 126.441 66.1512 126.441C65.1539 126.384 64.2272 126.057 63.3189 125.435C62.5794 124.932 61.8644 124.243 61.0666 123.274L61.0605 123.268H61.0666C62.5948 123.338 63.7884 123.551 64.7151 123.923C65.4915 124.234 66.1021 124.661 66.6391 125.268C66.8355 125.506 66.8048 125.844 66.6882 126.076C66.5778 126.304 66.3844 126.441 66.1727 126.441ZM66.1512 126.432C66.1574 126.432 66.1666 126.432 66.1727 126.432C66.3814 126.432 66.5716 126.298 66.6882 126.07C66.8048 125.841 66.8324 125.506 66.6391 125.271C65.8045 124.329 64.5525 123.432 61.0758 123.274C62.2327 124.676 63.8529 126.304 66.1512 126.432Z" fill="white"/>
<path fill-rule="evenodd" clip-rule="evenodd" d="M60.2865 125.81C60.7683 125.895 61.1703 125.203 60.9002 124.767C60.1423 123.639 58.9333 122.722 55.8831 122.173C56.9633 123.923 58.2766 125.426 60.2865 125.81Z" fill="white"/>
<path d="M60.3696 125.823C60.342 125.823 60.3144 125.82 60.2868 125.816C59.3478 125.637 58.5132 125.21 57.7368 124.509C57.1016 123.939 56.5125 123.198 55.8803 122.179L55.8773 122.173H55.8834C57.3195 122.433 58.4211 122.786 59.2527 123.253C59.9492 123.643 60.4709 124.125 60.9036 124.768C61.0601 125.018 60.9864 125.335 60.8483 125.539C60.7225 125.719 60.5476 125.823 60.3696 125.823ZM60.2868 125.807C60.4893 125.844 60.698 125.74 60.8422 125.533C60.9803 125.332 61.0509 125.018 60.8974 124.771C60.2285 123.774 59.1576 122.771 55.8895 122.179C56.8009 123.652 58.1265 125.396 60.2868 125.807Z" fill="white"/>
<path fill-rule="evenodd" clip-rule="evenodd" d="M55.1471 124.261C55.5982 124.292 55.902 123.612 55.6074 123.237C54.7943 122.273 53.5852 121.548 50.7192 121.347C51.8914 122.853 53.2538 124.109 55.1471 124.261Z" fill="white"/>
<path d="M55.1779 124.268C55.1687 124.268 55.1564 124.268 55.1472 124.268C54.2634 124.198 53.4503 123.887 52.6616 123.316C52.0203 122.853 51.4005 122.231 50.7162 121.353L50.7131 121.347H50.7192C52.0694 121.442 53.1219 121.658 53.9351 122.006C54.6163 122.298 55.1472 122.688 55.6105 123.237C55.7793 123.451 55.7455 123.749 55.6381 123.954C55.5307 124.152 55.3589 124.268 55.1779 124.268ZM55.1472 124.258C55.3405 124.271 55.5185 124.155 55.632 123.951C55.7394 123.749 55.7732 123.454 55.6044 123.243C54.8864 122.39 53.797 121.573 50.7254 121.356C51.7165 122.621 53.1158 124.094 55.1472 124.258Z" fill="white"/>
<path fill-rule="evenodd" clip-rule="evenodd" d="M50.6337 124.033C51.0848 124.063 51.3885 123.384 51.094 123.009C50.2808 122.045 49.0718 121.32 46.2057 121.118C47.3779 122.621 48.7404 123.877 50.6337 124.033Z" fill="white"/>
<path d="M50.6641 124.036C50.6549 124.036 50.6426 124.036 50.6334 124.036C49.7497 123.966 48.9365 123.655 48.1479 123.085C47.5066 122.621 46.8867 121.999 46.2024 121.121L46.1994 121.115H46.2055C47.5557 121.21 48.6082 121.426 49.4213 121.774C50.1026 122.067 50.6334 122.457 51.0968 123.006C51.2655 123.219 51.2318 123.518 51.1244 123.722C51.017 123.92 50.8452 124.036 50.6641 124.036ZM50.6334 124.027C50.8237 124.039 51.0047 123.923 51.1152 123.719C51.2226 123.518 51.2563 123.222 51.0876 123.012C50.3695 122.158 49.2802 121.341 46.2086 121.125C47.2028 122.39 48.602 123.862 50.6334 124.027Z" fill="white"/>
<path fill-rule="evenodd" clip-rule="evenodd" d="M99.0337 124.355L107.365 122.965Z" fill="white"/>
<path d="M107.348 122.81L99.0166 124.202L99.069 124.512L107.4 123.12L107.348 122.81Z" fill="white"/>
<path d="M121.056 116.179L105.765 119.943L105.84 120.242L121.13 116.478L121.056 116.179Z" fill="white"/>
<path d="M124.897 109.918L110.445 117.066L110.525 117.225L124.976 110.076L124.897 109.918Z" fill="white"/>
<path d="M128.305 103.838L114.925 112.773L115.026 112.922L128.406 103.987L128.305 103.838Z" fill="white"/>
<path d="M128.77 98.3949L117.769 108.353L117.868 108.461L128.869 98.5031L128.77 98.3949Z" fill="white"/>
<path d="M128.893 93.8063L119.591 103.458L119.691 103.553L128.993 93.9012L128.893 93.8063Z" fill="white"/>
<path d="M126.727 89.9035L121.213 98.0123L121.259 98.043L126.773 89.9342L126.727 89.9035Z" fill="white"/>
<path d="M119.411 94.8797L116.57 100.931L116.62 100.954L119.461 94.9029L119.411 94.8797Z" fill="white"/>
<path d="M116.969 96.301L114.746 101.504L114.797 101.526L117.019 96.3225L116.969 96.301Z" fill="white"/>
<path d="M113.882 97.7321L111.45 104.806L111.503 104.824L113.934 97.7499L113.882 97.7321Z" fill="white"/>
<path d="M111.343 99.9983L108.126 109.251L108.178 109.269L111.395 100.016L111.343 99.9983Z" fill="white"/>
<path d="M109.443 100.166L104.318 112.628L104.369 112.649L109.494 100.187L109.443 100.166Z" fill="white"/>
<path d="M108.142 99.9369L100.048 115.785L100.097 115.809L108.191 99.9617L108.142 99.9369Z" fill="white"/>
<path d="M96.1981 119.27L96.1521 119.24C99.8834 113.566 103.13 107.627 106.079 101.082L106.128 101.103C103.179 107.652 99.9325 113.594 96.1981 119.27Z" fill="white"/>
<path d="M88.7419 120.563L88.7082 120.521C92.817 117.417 96.3244 113.652 99.7489 108.671L99.7949 108.701C96.3673 113.686 92.8538 117.454 88.7419 120.563Z" fill="white"/>
<path fill-rule="evenodd" clip-rule="evenodd" d="M112.312 112.548C111.775 112.633 111.333 111.886 111.64 111.426C112.496 110.24 113.855 109.282 117.258 108.752C116.034 110.593 114.555 112.173 112.312 112.548Z" fill="white"/>
<path d="M112.232 112.557C112.02 112.557 111.815 112.432 111.677 112.219C111.508 111.957 111.492 111.643 111.64 111.42C112.128 110.743 112.717 110.24 113.496 109.835C114.426 109.35 115.66 108.993 117.261 108.746H117.267L117.264 108.752C116.549 109.826 115.887 110.606 115.172 111.2C114.297 111.932 113.361 112.374 112.315 112.548C112.287 112.554 112.26 112.557 112.232 112.557ZM117.252 108.755C113.604 109.323 112.401 110.374 111.643 111.426C111.495 111.646 111.511 111.957 111.68 112.216C111.833 112.453 112.075 112.582 112.312 112.545C114.724 112.143 116.218 110.31 117.252 108.755Z" fill="white"/>
<path fill-rule="evenodd" clip-rule="evenodd" d="M115.15 108.67C114.665 108.85 114.094 108.231 114.285 107.744C114.84 106.469 115.917 105.32 119.001 104.189C118.237 106.143 117.178 107.902 115.15 108.67Z" fill="white"/>
<path d="M114.972 108.704C114.803 108.704 114.625 108.625 114.481 108.479C114.269 108.265 114.19 107.975 114.282 107.741C114.598 107.015 115.046 106.433 115.693 105.909C116.467 105.28 117.547 104.716 119.001 104.183L119.007 104.18L119.004 104.186C118.556 105.326 118.096 106.18 117.55 106.875C116.881 107.726 116.095 108.314 115.15 108.674L115.147 108.677C115.092 108.695 115.034 108.704 114.972 108.704ZM118.998 104.192C115.693 105.405 114.782 106.616 114.291 107.744C114.199 107.975 114.279 108.262 114.487 108.475C114.684 108.674 114.935 108.747 115.15 108.668H115.153C117.329 107.838 118.351 105.841 118.998 104.192Z" fill="white"/>
<path fill-rule="evenodd" clip-rule="evenodd" d="M116.588 104.634C116.06 104.893 115.363 104.222 115.532 103.628C116.032 102.076 117.131 100.619 120.476 98.9847C119.801 101.36 118.782 103.53 116.588 104.634Z" fill="white"/>
<path d="M116.337 104.696C116.175 104.696 116.006 104.629 115.849 104.504C115.619 104.315 115.432 103.97 115.527 103.629C115.812 102.745 116.257 102.016 116.932 101.336C117.736 100.522 118.896 99.7539 120.47 98.9826L120.477 98.9796L120.474 98.9857C120.081 100.37 119.645 101.418 119.102 102.287C118.783 102.796 118.421 103.245 118.025 103.623C117.598 104.031 117.113 104.373 116.586 104.638C116.509 104.677 116.426 104.696 116.337 104.696ZM120.47 98.9948C116.883 100.748 115.978 102.26 115.536 103.632C115.441 103.97 115.628 104.312 115.855 104.498C116.089 104.69 116.362 104.742 116.586 104.632C118.948 103.446 119.903 100.998 120.47 98.9948Z" fill="white"/>
<path fill-rule="evenodd" clip-rule="evenodd" d="M113.262 108.46C112.919 108.863 112.1 108.558 112.026 108.006C111.879 106.543 112.259 104.942 114.438 102.397C114.742 104.601 114.683 106.762 113.262 108.46Z" fill="white"/>
<path d="M112.833 108.65C112.759 108.65 112.683 108.638 112.606 108.616C112.348 108.54 112.066 108.324 112.023 108.006C111.94 107.174 112.044 106.409 112.357 105.607C112.729 104.647 113.41 103.595 114.435 102.394L114.441 102.388V102.394C114.619 103.68 114.637 104.705 114.499 105.616C114.33 106.738 113.928 107.668 113.266 108.461C113.161 108.586 113.008 108.65 112.833 108.65ZM114.435 102.403C112.1 105.135 111.9 106.711 112.029 108.006C112.072 108.32 112.351 108.534 112.606 108.61C112.87 108.686 113.115 108.631 113.259 108.461C114.788 106.632 114.689 104.266 114.435 102.403Z" fill="white"/>
<path fill-rule="evenodd" clip-rule="evenodd" d="M109.998 112.274C109.62 112.7 108.691 112.386 108.592 111.807C108.39 110.271 108.78 108.585 111.167 105.884C111.563 108.204 111.553 110.472 109.998 112.274Z" fill="white"/>
<path d="M109.507 112.475C109.421 112.475 109.332 112.463 109.24 112.435C109.08 112.39 108.93 112.307 108.816 112.204C108.694 112.091 108.614 111.954 108.589 111.807C108.476 110.932 108.574 110.13 108.905 109.28C109.301 108.265 110.041 107.152 111.164 105.881L111.167 105.875V105.881C111.4 107.231 111.446 108.307 111.314 109.268C111.237 109.832 111.096 110.359 110.891 110.838C110.67 111.356 110.369 111.838 109.995 112.271C109.884 112.408 109.706 112.475 109.507 112.475ZM111.164 105.893C108.605 108.789 108.414 110.448 108.595 111.807C108.644 112.088 108.896 112.332 109.243 112.429C109.547 112.515 109.835 112.454 109.998 112.271C111.667 110.338 111.498 107.847 111.164 105.893Z" fill="white"/>
<path fill-rule="evenodd" clip-rule="evenodd" d="M108.263 116.242C107.705 116.191 107.49 115.209 107.935 114.764C109.147 113.636 110.795 112.913 114.345 113.246C112.565 115.023 110.614 116.431 108.263 116.242Z" fill="white"/>
<path d="M108.684 116.262C108.546 116.262 108.405 116.256 108.267 116.246H108.264C108.043 116.225 107.859 116.057 107.761 115.786C107.65 115.484 107.659 115.036 107.935 114.762C108.626 114.118 109.365 113.704 110.264 113.454C111.338 113.155 112.673 113.085 114.349 113.243H114.355L114.349 113.25C113.309 114.289 112.409 114.999 111.52 115.487C110.998 115.774 110.47 115.984 109.955 116.109C109.537 116.21 109.111 116.262 108.684 116.262ZM108.261 116.24C108.402 116.252 108.54 116.259 108.678 116.259C111.013 116.259 112.919 114.667 114.336 113.25C110.528 112.893 109.009 113.768 107.935 114.768C107.662 115.039 107.653 115.487 107.761 115.786C107.862 116.051 108.043 116.216 108.261 116.24Z" fill="white"/>
<path fill-rule="evenodd" clip-rule="evenodd" d="M103.9 119.401C103.36 119.291 103.232 118.395 103.701 118.053C104.971 117.19 106.628 116.736 110.053 117.437C108.178 118.815 106.168 119.84 103.9 119.401Z" fill="white"/>
<path d="M104.968 119.508C104.612 119.508 104.256 119.475 103.9 119.404C103.67 119.356 103.492 119.161 103.431 118.88C103.37 118.609 103.431 118.246 103.698 118.051C104.422 117.56 105.174 117.276 106.067 117.158C107.135 117.014 108.439 117.106 110.05 117.438H110.056L110.05 117.441C108.957 118.243 108.025 118.77 107.119 119.103C106.386 119.374 105.674 119.508 104.968 119.508ZM103.9 119.398C106.337 119.868 108.463 118.6 110.044 117.441C108.856 117.197 107.893 117.097 107.092 117.097C105.416 117.097 104.465 117.539 103.704 118.057C103.44 118.252 103.379 118.609 103.44 118.88C103.498 119.157 103.67 119.353 103.9 119.398Z" fill="white"/>
<path fill-rule="evenodd" clip-rule="evenodd" d="M105.944 116.335C105.539 116.716 104.692 116.323 104.661 115.747C104.643 114.226 105.198 112.619 107.766 110.204C107.889 112.506 107.625 114.722 105.944 116.335Z" fill="white"/>
<path d="M105.536 116.491C105.432 116.491 105.321 116.47 105.211 116.424C105.063 116.366 104.931 116.271 104.833 116.159C104.729 116.037 104.668 115.893 104.661 115.75C104.649 114.884 104.836 114.11 105.244 113.311C105.732 112.357 106.558 111.342 107.77 110.205L107.776 110.198V110.205C107.847 111.546 107.77 112.601 107.537 113.528C107.251 114.665 106.733 115.582 105.95 116.335C105.843 116.439 105.695 116.491 105.536 116.491ZM107.767 110.214C105.011 112.802 104.649 114.403 104.668 115.747C104.683 116.027 104.895 116.29 105.214 116.415C105.493 116.524 105.772 116.494 105.944 116.329C107.748 114.601 107.868 112.156 107.767 110.214Z" fill="white"/>
<path fill-rule="evenodd" clip-rule="evenodd" d="M101.655 119.396C101.222 119.713 100.449 119.255 100.486 118.713C100.636 117.28 101.348 115.826 104.091 113.82C103.947 115.993 103.447 118.051 101.655 119.396Z" fill="white"/>
<path d="M101.317 119.502C101.188 119.502 101.05 119.465 100.918 119.392C100.636 119.236 100.464 118.971 100.479 118.709C100.565 117.895 100.829 117.185 101.311 116.474C101.888 115.627 102.793 114.758 104.085 113.813L104.091 113.81V113.816C104.008 115.084 103.818 116.069 103.493 116.916C103.094 117.956 102.492 118.767 101.655 119.395C101.559 119.465 101.443 119.502 101.317 119.502ZM104.085 113.825C101.148 115.977 100.62 117.444 100.488 118.712C100.47 118.968 100.642 119.233 100.921 119.389C101.182 119.532 101.461 119.532 101.651 119.395C103.579 117.947 103.965 115.66 104.085 113.825Z" fill="white"/>
<path fill-rule="evenodd" clip-rule="evenodd" d="M99.0972 123.246C98.1459 123.164 98.1613 121.978 98.5694 121.585C99.8613 120.475 102.068 119.762 105.323 120.173C103.725 121.877 101.392 123.548 99.0972 123.246Z" fill="white"/>
<path d="M99.6475 123.286C99.4603 123.286 99.2762 123.274 99.0952 123.25C98.7392 123.219 98.4784 123.024 98.3618 122.701C98.2268 122.323 98.3188 121.823 98.5643 121.585C99.2609 120.987 100.148 120.558 101.206 120.308C102.403 120.024 103.787 119.978 105.321 120.173H105.327L105.324 120.18C104.692 120.853 103.686 121.795 102.471 122.466C101.489 123.009 100.544 123.286 99.6475 123.286ZM103.557 120.064C101.473 120.064 99.7396 120.588 98.5705 121.588C98.325 121.823 98.236 122.32 98.371 122.698C98.4845 123.018 98.7423 123.213 99.0983 123.243C99.2824 123.268 99.4634 123.28 99.6445 123.28C102.121 123.28 104.404 121.152 105.318 120.18C104.708 120.1 104.121 120.064 103.557 120.064Z" fill="white"/>
<path fill-rule="evenodd" clip-rule="evenodd" d="M97.7241 122.24C97.3651 122.545 96.69 122.161 96.7054 121.667C96.7882 120.362 97.3498 119.015 99.6236 117.091C99.5714 119.07 99.2093 120.954 97.7241 122.24Z" fill="white"/>
<path d="M97.4137 122.352C97.3186 122.352 97.2204 122.328 97.1222 122.282C96.9074 122.179 96.6926 121.95 96.7018 121.666C96.7479 120.923 96.9504 120.27 97.3401 119.609C97.8034 118.819 98.5491 117.993 99.6231 117.087L99.6292 117.081V117.087C99.5985 118.24 99.4697 119.142 99.218 119.923C98.9112 120.88 98.4233 121.639 97.7298 122.24L97.7236 122.246C97.6347 122.316 97.5273 122.352 97.4137 122.352ZM99.617 117.1C97.1805 119.164 96.7785 120.514 96.7049 121.669C96.6957 121.947 96.9074 122.176 97.1222 122.276C97.3431 122.383 97.5671 122.368 97.7206 122.237L97.7236 122.233C99.3193 120.856 99.574 118.767 99.617 117.1Z" fill="white"/>
<path fill-rule="evenodd" clip-rule="evenodd" d="M67.3966 130.553C74.4175 129.877 81.38 129.541 88.7784 126.688C89.8953 126.163 91.2516 126.014 92.8381 126.243C94.5565 126.416 96.5572 125.398 98.5671 124.343C97.2323 123.709 95.7133 123.218 91.9881 125.233C91.356 125.554 90.7484 124.804 91.8531 124.49C94.7038 123.651 95.4249 122.005 95.8453 120.243C92.3256 121.136 91.0736 123.935 89.6652 124.965C82.5185 128.898 72.5518 129.325 67.3383 129.785C66.8903 129.809 66.9363 130.581 67.3966 130.553Z" fill="white"/>
<path d="M67.3725 130.557C67.259 130.557 67.1608 130.505 67.0964 130.411C67.0104 130.282 66.9982 130.097 67.0687 129.959C67.124 129.853 67.2191 129.789 67.3419 129.783C67.8604 129.737 68.4312 129.691 69.0357 129.642C74.3474 129.215 83.237 128.502 89.6687 124.963C90.0922 124.652 90.4972 124.188 90.9667 123.649C91.5007 123.033 92.1082 122.338 92.8876 121.716C93.7867 120.999 94.7564 120.515 95.8488 120.24H95.8549V120.246C95.6678 121.03 95.3916 121.938 94.7687 122.719C94.1181 123.53 93.1669 124.112 91.8597 124.496C91.381 124.633 91.2736 124.832 91.2552 124.938C91.2368 125.042 91.2797 125.146 91.381 125.219C91.5007 125.307 91.7339 125.365 91.9947 125.234C93.6824 124.319 95.051 123.85 96.1833 123.795C97.2174 123.743 97.9324 124.039 98.5768 124.344L98.5829 124.347L98.5768 124.35C97.5089 124.911 96.5484 125.405 95.6033 125.761C94.5232 126.17 93.621 126.328 92.8447 126.249C91.2644 126.024 89.8989 126.173 88.785 126.694C87.2169 127.298 85.6366 127.807 83.9551 128.246C82.4545 128.636 80.9049 128.965 79.2203 129.246C76.0873 129.77 72.945 130.054 69.9072 130.331C69.0848 130.404 68.2379 130.484 67.4032 130.563C67.3879 130.557 67.3817 130.557 67.3725 130.557ZM95.8427 120.246C93.3878 120.871 92.0469 122.414 90.9698 123.652C90.5003 124.191 90.0953 124.655 89.6718 124.966C88.1651 125.795 86.4283 126.52 84.5043 127.13C82.8442 127.655 80.9939 128.103 78.9963 128.469C75.3263 129.142 71.8404 129.42 69.0357 129.645C68.4312 129.694 67.8604 129.74 67.3419 129.786C67.2222 129.792 67.1271 129.853 67.0749 129.959C67.0074 130.093 67.0166 130.276 67.1025 130.404C67.17 130.505 67.2743 130.557 67.3971 130.548C68.2317 130.468 69.0817 130.389 69.9041 130.316C75.9799 129.764 82.2612 129.197 88.7819 126.682C89.3373 126.42 89.9633 126.252 90.6353 126.176C91.3104 126.103 92.053 126.121 92.8416 126.234C94.6122 126.414 96.7111 125.313 98.5645 124.338C97.1806 123.682 95.634 123.261 91.9947 125.231C91.7308 125.365 91.4976 125.304 91.3748 125.216C91.2736 125.142 91.2275 125.036 91.249 124.929C91.2705 124.822 91.3748 124.621 91.8597 124.484C94.8086 123.618 95.4622 121.844 95.8427 120.246Z" fill="white"/>
<path fill-rule="evenodd" clip-rule="evenodd" d="M67.967 127.965C67.6325 127.682 67.8872 127.011 68.3475 126.95C69.5657 126.831 70.8944 127.145 73.0117 128.935C71.1736 129.179 69.3785 129.13 67.967 127.965Z" fill="white"/>
<path d="M71.395 129.057C71.0145 129.057 70.6616 129.032 70.3271 128.984C69.3943 128.846 68.621 128.514 67.9612 127.968C67.817 127.847 67.771 127.642 67.8354 127.423C67.8999 127.209 68.0778 126.981 68.3417 126.947C69.0352 126.88 69.6704 126.965 70.3394 127.225C71.1403 127.529 72.0117 128.09 73.009 128.932L73.0152 128.938H73.009C72.4107 129.017 71.8798 129.057 71.395 129.057ZM67.9674 127.962C69.4832 129.215 71.4533 129.139 73.0029 128.929C70.7321 127.011 69.4219 126.847 68.3448 126.95C68.087 126.984 67.906 127.212 67.8446 127.423C67.7802 127.639 67.8262 127.843 67.9674 127.962Z" fill="white"/>
<path fill-rule="evenodd" clip-rule="evenodd" d="M73.4664 127.544C73.1013 127.303 73.2731 126.605 73.7211 126.489C74.9148 126.227 76.2742 126.383 78.5909 127.91C76.7958 128.374 75.0068 128.535 73.4664 127.544Z" fill="white"/>
<path d="M76.1207 128.279C76.0563 128.279 75.9949 128.279 75.9335 128.276C74.9915 128.249 74.1845 128.011 73.4633 127.548C73.3069 127.444 73.2363 127.246 73.2731 127.02C73.3099 126.801 73.4634 126.554 73.718 126.487C74.3993 126.337 75.0375 126.35 75.7341 126.526C76.5657 126.737 77.4985 127.188 78.5909 127.907L78.5971 127.91L78.5909 127.913C77.6274 128.16 76.8388 128.279 76.1207 128.279ZM73.4664 127.542C75.1204 128.606 77.0689 128.298 78.5817 127.907C76.0992 126.273 74.7767 126.261 73.7211 126.493C73.4664 126.557 73.3161 126.804 73.2792 127.02C73.2424 127.246 73.313 127.441 73.4664 127.542Z" fill="white"/>
<path fill-rule="evenodd" clip-rule="evenodd" d="M78.4254 126.107C78.0019 125.827 78.2014 125.019 78.72 124.888C80.1039 124.583 81.675 124.763 84.3569 126.531C82.2826 127.065 80.2113 127.254 78.4254 126.107Z" fill="white"/>
<path d="M81.5003 126.956C81.4266 126.956 81.353 126.956 81.2824 126.953C80.19 126.923 79.2572 126.645 78.4256 126.109C78.2445 125.99 78.1617 125.761 78.2077 125.499C78.2507 125.246 78.4256 124.959 78.7232 124.883C79.5118 124.709 80.2514 124.725 81.0553 124.929C82.0158 125.173 83.099 125.694 84.3632 126.529L84.3694 126.532L84.3632 126.535C83.2463 126.822 82.3319 126.956 81.5003 126.956ZM78.4286 126.106C80.3465 127.34 82.5988 126.981 84.351 126.529C81.4757 124.636 79.9476 124.621 78.7232 124.889C78.4286 124.962 78.2537 125.249 78.2138 125.499C78.1678 125.761 78.2507 125.987 78.4286 126.106Z" fill="white"/>
<path fill-rule="evenodd" clip-rule="evenodd" d="M68.183 126.436C67.6705 126.46 67.3483 125.683 67.692 125.268C68.6371 124.201 70.0211 123.418 73.2645 123.268C71.896 124.936 70.3218 126.317 68.183 126.436Z" fill="white"/>
<path d="M68.1611 126.441C67.9494 126.441 67.756 126.307 67.6394 126.076C67.5228 125.844 67.4921 125.506 67.6885 125.268C68.2255 124.661 68.8362 124.234 69.6125 123.923C70.5392 123.551 71.7329 123.338 73.261 123.268H73.2672L73.261 123.274C72.4632 124.246 71.7482 124.932 71.0087 125.435C70.1004 126.054 69.1768 126.384 68.1764 126.441C68.1734 126.441 68.1672 126.441 68.1611 126.441ZM73.2549 123.274C69.7782 123.436 68.5262 124.329 67.6916 125.271C67.4983 125.506 67.5259 125.841 67.6425 126.07C67.7591 126.298 67.9494 126.432 68.158 126.432C68.1642 126.432 68.1734 126.432 68.1795 126.432C70.4809 126.304 72.1011 124.676 73.2549 123.274Z" fill="white"/>
<path fill-rule="evenodd" clip-rule="evenodd" d="M74.0459 125.81C73.5641 125.896 73.1621 125.204 73.4321 124.768C74.1901 123.64 75.3991 122.722 78.4492 122.173C77.3691 123.923 76.0558 125.426 74.0459 125.81Z" fill="white"/>
<path d="M73.9638 125.823C73.7858 125.823 73.6109 125.719 73.4851 125.536C73.347 125.332 73.2734 125.015 73.4299 124.768C73.8595 124.127 74.3842 123.646 75.0807 123.252C75.9123 122.783 77.0139 122.432 78.45 122.173H78.4562L78.4531 122.179C77.821 123.198 77.2318 123.938 76.5966 124.509C75.8172 125.21 74.9826 125.637 74.0466 125.816C74.019 125.819 73.9914 125.823 73.9638 125.823ZM78.4439 122.179C75.1759 122.768 74.1049 123.774 73.436 124.771C73.2826 125.018 73.3531 125.332 73.4912 125.533C73.6355 125.743 73.841 125.844 74.0466 125.807C76.2069 125.396 77.5325 123.652 78.4439 122.179Z" fill="white"/>
<path fill-rule="evenodd" clip-rule="evenodd" d="M79.1863 124.261C78.7352 124.292 78.4314 123.612 78.726 123.237C79.5392 122.273 80.7482 121.548 83.6143 121.347C82.4421 122.853 81.0796 124.109 79.1863 124.261Z" fill="white"/>
<path d="M79.1556 124.268C78.9715 124.268 78.8028 124.152 78.6954 123.954C78.588 123.752 78.5542 123.451 78.723 123.237C79.1863 122.688 79.7172 122.298 80.3984 122.006C81.2116 121.658 82.2641 121.442 83.6143 121.347H83.6204L83.6173 121.353C82.9331 122.231 82.3132 122.853 81.6719 123.316C80.8832 123.884 80.0701 124.194 79.1863 124.268C79.1771 124.265 79.1679 124.268 79.1556 124.268ZM83.6081 121.353C80.5365 121.57 79.4472 122.39 78.7291 123.24C78.5634 123.451 78.5972 123.749 78.7015 123.948C78.812 124.155 78.993 124.271 79.1863 124.255C81.2177 124.094 82.617 122.621 83.6081 121.353Z" fill="white"/>
<path fill-rule="evenodd" clip-rule="evenodd" d="M83.7001 124.033C83.2491 124.063 82.9453 123.383 83.2399 123.008C84.053 122.045 85.262 121.319 88.1281 121.118C86.9559 122.621 85.5934 123.877 83.7001 124.033Z" fill="white"/>
<path d="M83.6694 124.036C83.4853 124.036 83.3165 123.92 83.2091 123.722C83.1017 123.521 83.0679 123.219 83.2367 123.006C83.7001 122.457 84.2309 122.067 84.9121 121.774C85.7253 121.426 86.7778 121.21 88.128 121.115H88.1341L88.1311 121.121C87.4468 121.999 86.8269 122.621 86.1856 123.085C85.397 123.652 84.5838 123.963 83.7001 124.036C83.6909 124.036 83.6817 124.036 83.6694 124.036ZM88.1219 121.125C85.0502 121.341 83.9609 122.161 83.2429 123.012C83.0771 123.222 83.1109 123.521 83.2152 123.719C83.3257 123.926 83.5067 124.042 83.697 124.027C85.7314 123.865 87.1307 122.39 88.1219 121.125Z" fill="white"/>
<path d="M30.8992 32.5552L30.6844 31.6467L66.378 14.1536L103.781 31.479L103.578 32.3936L30.8992 32.5552ZM66.3903 15.2145L32.9767 31.5918L101.412 31.4394L66.3903 15.2145Z" fill="white"/>
<path fill-rule="evenodd" clip-rule="evenodd" d="M87.9378 79.9862C79.7478 79.6966 71.2571 79.3521 67.1298 84.358C62.1772 78.8765 53.263 80.5228 46.3219 80.4222C43.7719 86.4707 41.2189 92.2997 38.6689 98.3512C47.712 101.19 56.755 104.104 65.7981 107.845C66.4824 107.851 67.093 107.854 67.7773 107.86C75.6175 104.763 85.8512 101.314 95.4834 98.3482C92.9303 92.3027 90.4878 86.0347 87.9378 79.9862ZM65.9392 105.442C58.679 100.632 50.3417 99.1012 40.2799 97.5708C42.5445 92.2143 44.8091 86.8579 47.0706 81.5014C59.8543 80.8612 64.092 82.5014 65.9362 84.7817C65.9392 91.6686 65.9392 98.5555 65.9392 105.442ZM68.0872 84.9799C69.9775 82.6629 74.3226 80.5563 87.4284 81.2087C89.7482 86.6566 92.0711 92.1015 94.391 97.5494C84.0775 98.8542 75.5254 100.33 68.0872 105.552C68.0872 98.5494 68.0872 91.9826 68.0872 84.9799Z" fill="white"/>
</g>
<defs>
<clipPath id="clip0_5201_13150">
<rect width="130.85" height="130" fill="white" transform="translate(0.6716 0.562317)"/>
</clipPath>
</defs>
</svg>
